<svg id="圖層_1" data-name="圖層 1" xmlns="http://www.w3.org/2000/svg" viewBox="0 0 24 24"><defs><style>.cls-1,.cls-2{fill:#ffb83b;}.cls-1{fill-opacity:0;}</style></defs><g id="alert-triangle"><rect id="Rectangle_1865" data-name="Rectangle 1865" class="cls-1" x="3.75" y="3.75" width="16.5" height="16.5"/><g id="Group_3110" data-name="Group 3110"><path id="Path_3611" data-name="Path 3611" class="cls-2" d="M19.92,15.79l-5.75-10a2.51,2.51,0,0,0-4.34,0l-5.76,10A2.49,2.49,0,0,0,6.24,19.5H17.75A2.51,2.51,0,0,0,20,18.19a2.47,2.47,0,0,0,0-2.4Zm-1.27,1.62a1,1,0,0,1-.9.51H6.24a1,1,0,0,1-.89-.51.8.8,0,0,1,0-.79l5.76-10a1.08,1.08,0,0,1,1.5-.27.87.87,0,0,1,.27.27l5.76,10a.81.81,0,0,1,0,.8Z"/><ellipse id="Ellipse_133" data-name="Ellipse 133" class="cls-2" cx="12" cy="15.55" rx="0.75" ry="0.79"/><path id="Path_3612" data-name="Path 3612" class="cls-2" d="M12,9.24a.76.76,0,0,0-.75.79v3.15a.75.75,0,0,0,1.5,0V10A.77.77,0,0,0,12,9.24Z"/></g></g></svg>