<svg id="圖層_1" data-name="圖層 1" xmlns="http://www.w3.org/2000/svg" viewBox="0 0 24 24"><defs><style>.cls-1{fill:#ffb83b;}</style></defs><path class="cls-1" d="M16.47,17.62a.47.47,0,1,0,.51.47A.49.49,0,0,0,16.47,17.62Z"/><path class="cls-1" d="M16.47,14.39a.5.5,0,0,0-.52.46V16.7a.52.52,0,0,0,1,0V14.85A.48.48,0,0,0,16.47,14.39Z"/><path class="cls-1" d="M16.47,12.69a3.78,3.78,0,1,0,3.78,3.78A3.78,3.78,0,0,0,16.47,12.69Zm0,6.73a3,3,0,1,1,3-3A3,3,0,0,1,16.47,19.42Z"/><path class="cls-1" d="M7.05,14.27H7.5a.59.59,0,0,0,.4-.16l1-1,1,1a.55.55,0,0,0,.39.16.57.57,0,0,0,.41-.17L13,11.82l.21.21c1,1.11,1.73.1,1-.61l-.84-.85A.57.57,0,0,0,13,10.4a.58.58,0,0,0-.41.17l-2.27,2.3-1-1a.57.57,0,0,0-.39-.16.59.59,0,0,0-.4.16L7.27,13.1H6.1a5.08,5.08,0,0,1-1.18-2.78c0-3.51,2.23-5.14,3.75-5.14A2.51,2.51,0,0,1,11.14,6.6a.92.92,0,0,0,1.73,0,2.42,2.42,0,0,1,2.46-1.39c1.52,0,3.75,1.63,3.75,5.14a3.23,3.23,0,0,1-.26,1.17c-.45,1.08.68,1.37,1,.61a4.52,4.52,0,0,0,.43-1.78C20.25,6,17.32,4,15.33,4A3.72,3.72,0,0,0,12,5.73,3.77,3.77,0,0,0,8.67,4c-2,0-4.92,2-4.92,6.32a5.49,5.49,0,0,0,1,2.78l.82,1.17a30.05,30.05,0,0,0,5,4.71A.58.58,0,1,0,11.2,18,30.8,30.8,0,0,1,7.05,14.27Z"/></svg>