<svg id="圖層_1" data-name="圖層 1" xmlns="http://www.w3.org/2000/svg" viewBox="0 0 24 24"><defs><style>.cls-1{fill:#ffb83b;}</style></defs><path class="cls-1" d="M16.47,17.62a.47.47,0,1,0,.51.47A.49.49,0,0,0,16.47,17.62Z"/><path class="cls-1" d="M16.47,14.39a.5.5,0,0,0-.52.46V16.7a.52.52,0,0,0,1,0V14.85A.48.48,0,0,0,16.47,14.39Z"/><path class="cls-1" d="M16.47,12.69a3.78,3.78,0,1,0,3.78,3.78A3.78,3.78,0,0,0,16.47,12.69Zm0,6.73a3,3,0,1,1,3-3A3,3,0,0,1,16.47,19.42Z"/><path class="cls-1" d="M4.3,12a7.7,7.7,0,0,1,15.4,0c0,.9.53.69.53.45s0-.3,0-.45a8.25,8.25,0,0,0-16.5,0,8.15,8.15,0,0,0,.31,2.25.28.28,0,0,0,.34.19.28.28,0,0,0,.19-.34A7.88,7.88,0,0,1,4.3,12Z"/><path class="cls-1" d="M15.33,11.07a3.54,3.54,0,0,0-.14-2.88A3.57,3.57,0,1,0,8.81,11.4,3.52,3.52,0,0,0,10.39,13a8,8,0,0,0-4.55,2.74,1.41,1.41,0,0,0,0,1.81,8.25,8.25,0,0,0,6.6,2.69,5.5,5.5,0,0,1,2.85-9.16Z"/></svg>