<svg id="圖層_1" data-name="圖層 1" xmlns="http://www.w3.org/2000/svg" viewBox="0 0 24 24"><defs><style>.cls-1{fill:#ffb83b;}</style></defs><path class="cls-1" d="M16.47,17.62a.47.47,0,1,0,.51.47A.49.49,0,0,0,16.47,17.62Z"/><path class="cls-1" d="M16.47,14.39a.5.5,0,0,0-.52.46V16.7a.52.52,0,0,0,1,0V14.85A.48.48,0,0,0,16.47,14.39Z"/><path class="cls-1" d="M16.47,12.69a3.78,3.78,0,1,0,3.78,3.78A3.78,3.78,0,0,0,16.47,12.69Zm0,6.73a3,3,0,1,1,3-3A3,3,0,0,1,16.47,19.42Z"/><path class="cls-1" d="M5.22,3.89a.24.24,0,0,0-.44,0l-1,2a.2.2,0,0,0,0,.11V20a.25.25,0,0,0,.25.25H6A.25.25,0,0,0,6.25,20V6a.2.2,0,0,0,0-.11Z"/><rect class="cls-1" x="6.75" y="15.75" width="3.5" height="1.83" rx="0.25"/><rect class="cls-1" x="13.75" y="9.08" width="3.5" height="1.83" rx="0.25"/><rect class="cls-1" x="6.75" y="12.42" width="3.5" height="1.83" rx="0.25"/><path class="cls-1" d="M20.22,5.89l-1-2a.24.24,0,0,0-.44,0l-1,2a.2.2,0,0,0,0,.11v5.11a5.47,5.47,0,0,1,2.5,1.36V6A.2.2,0,0,0,20.22,5.89Z"/><rect class="cls-1" x="6.75" y="9.08" width="3.5" height="1.83" rx="0.25"/><path class="cls-1" d="M13.25,12V6a.2.2,0,0,0,0-.11l-1-2a.24.24,0,0,0-.44,0l-1,2a.2.2,0,0,0,0,.11V20a.25.25,0,0,0,.25.25h1.5A5.48,5.48,0,0,1,13.25,12Z"/></svg>