<svg id="圖層_1" data-name="圖層 1" xmlns="http://www.w3.org/2000/svg" viewBox="0 0 24 24"><defs><style>.cls-1{fill:#ffb83b;}</style></defs><path class="cls-1" d="M16.47,17.62a.47.47,0,1,0,.51.47A.49.49,0,0,0,16.47,17.62Z"/><path class="cls-1" d="M16.47,14.39a.5.5,0,0,0-.52.46V16.7a.52.52,0,0,0,1,0V14.85A.48.48,0,0,0,16.47,14.39Z"/><path class="cls-1" d="M16.47,12.69a3.78,3.78,0,1,0,3.78,3.78A3.78,3.78,0,0,0,16.47,12.69Zm0,6.73a3,3,0,1,1,3-3A3,3,0,0,1,16.47,19.42Z"/><path class="cls-1" d="M11.08,16.39H4.3a.56.56,0,0,0,0,1.11h6.78C12,17.5,12.05,16.39,11.08,16.39Z"/><path class="cls-1" d="M6.38,7.6H17.44v2.83a.55.55,0,0,0,1.1,0V7.05A.55.55,0,0,0,18,6.5H5.82a.55.55,0,0,0-.55.55V14.8a.55.55,0,0,0,.55.55h5.31c.87,0,.91-1.11,0-1.11H6.38Z"/><path class="cls-1" d="M16.22,11V8.61A.23.23,0,0,0,16,8.38H7.83a.23.23,0,0,0-.23.23v4.54a.22.22,0,0,0,.23.22H12A5.49,5.49,0,0,1,16.22,11Z"/></svg>