<svg id="Component_78_2" data-name="Component 78 – 2" xmlns="http://www.w3.org/2000/svg" width="24" height="24" viewBox="0 0 24 24">
  <g id="Group_390" data-name="Group 390" transform="translate(-240 -139.768)">
    <path id="Path_173" data-name="Path 173" d="M93.242,6436.749v11.111a.8.8,0,0,0,.8.793h17.7a.8.8,0,0,0,.805-.793v-11.111a.8.8,0,0,0-.805-.793h-17.7A.8.8,0,0,0,93.242,6436.749Zm1.609.793H110.94v9.523H94.851Z" transform="translate(148.97 -6292.188)" fill="#fff"/>
    <path id="Path_174" data-name="Path 174" d="M107.458,6437.966H95.583a.327.327,0,0,0-.33.326v6.509a.328.328,0,0,0,.33.326h11.876a.329.329,0,0,0,.331-.326v-6.509A.328.328,0,0,0,107.458,6437.966Z" transform="translate(150.345 -6291.43)" fill="#fff"/>
    <path id="Path_175" data-name="Path 175" d="M114.225,6449.563H91.834a.794.794,0,1,0,0,1.587h22.391a.794.794,0,1,0,0-1.587Z" transform="translate(148.97 -6291.384)" fill="#fff"/>
  </g>
  <rect id="Rectangle_354" data-name="Rectangle 354" width="24" height="24" fill="none"/>
</svg>
