<svg id="Component_79_2" data-name="Component 79 – 2" xmlns="http://www.w3.org/2000/svg" width="24" height="23.999" viewBox="0 0 24 23.999">
  <path id="Subtraction_13" data-name="Subtraction 13" d="M24,13.91A2,2,0,0,0,22,12H18V7.454A3.115,3.115,0,0,0,16.5,4.9V4.445a3,3,0,1,1,3,3.009h3a1.627,1.627,0,0,1,1.5,1.5V13.91Zm-24,0H0V8.958a1.6,1.6,0,0,1,1.5-1.5h3a3.009,3.009,0,1,1,3-3.009V4.9A3.114,3.114,0,0,0,6,7.454V12H2A2,2,0,0,0,0,13.91ZM16.5,12h-9V7.454A1.627,1.627,0,0,1,9,5.949h2.366A3.012,3.012,0,0,1,9.9.858,3,3,0,0,1,15,2.94a3,3,0,0,1-2.364,3.009H15a1.627,1.627,0,0,1,1.5,1.5V12Z" fill="#fff"/>
  <g id="Group_404" data-name="Group 404" transform="translate(-49 -212.715)">
    <g id="wristwatch" transform="translate(47 244.714) rotate(-90)">
      <path id="Path_519" data-name="Path 519" d="M15.143,6.286V2.857A.857.857,0,0,0,14.286,2H11.429a.857.857,0,0,0-.857.857V6.286A2.571,2.571,0,0,0,8,8.857V19.143a2.571,2.571,0,0,0,2.571,2.571v3.429a.857.857,0,0,0,.857.857h2.857a.857.857,0,0,0,.857-.857V21.714a2.571,2.571,0,0,0,2.571-2.571V8.857A2.571,2.571,0,0,0,15.143,6.286ZM16,19.143a.857.857,0,0,1-.857.857H10.571a.857.857,0,0,1-.857-.857V8.857A.857.857,0,0,1,10.571,8h4.571A.857.857,0,0,1,16,8.857Z" fill="#fff"/>
    </g>
    <path id="Path_520" data-name="Path 520" d="M18,19a1,1,0,0,1-.71-.29l-2-2A1,1,0,0,1,15,16V12a1,1,0,0,1,2,0v3.59l1.71,1.7A1,1,0,0,1,18,19Z" transform="translate(46 248.863) rotate(-90)" fill="#fff"/>
  </g>
</svg>
