<svg id="Component_36_1" data-name="Component 36 – 1" xmlns="http://www.w3.org/2000/svg" width="24" height="24" viewBox="0 0 24 24">
  <g id="Group_405" data-name="Group 405" transform="translate(0 -0.767)">
    <path id="Path_173" data-name="Path 173" d="M93.242,6436.76v11.262a.8.8,0,0,0,.8.8h17.7a.8.8,0,0,0,.805-.8V6436.76a.8.8,0,0,0-.805-.8h-17.7A.8.8,0,0,0,93.242,6436.76Zm1.609.8H110.94v9.653H94.851Z" transform="translate(-91.03 -6431.188)" fill="#c4dcf1"/>
    <path id="Path_174" data-name="Path 174" d="M107.458,6437.966H95.583a.329.329,0,0,0-.33.33v6.6a.33.33,0,0,0,.33.33h11.876a.331.331,0,0,0,.331-.33v-6.6A.33.33,0,0,0,107.458,6437.966Z" transform="translate(-89.655 -6430.46)" fill="#c4dcf1"/>
    <path id="Path_175" data-name="Path 175" d="M114.225,6449.564H91.834a.8.8,0,0,0,0,1.609h22.391a.8.8,0,1,0,0-1.609Z" transform="translate(-91.03 -6430.406)" fill="#c4dcf1"/>
  </g>
  <rect id="Rectangle_354" data-name="Rectangle 354" width="24" height="24" fill="none"/>
</svg>
