<svg id="Component_177_1" data-name="Component 177 – 1" xmlns="http://www.w3.org/2000/svg" width="36.357" height="32" viewBox="0 0 36.357 32">
  <path id="Path_533" data-name="Path 533" d="M30.369,34.547l-.578-3.228-1.024,1.7Zm1.893,1.861-1.312,1.344.7.6.866-.846h3.85l1.385,1.175.558-.557-1.792-1.712Zm-7.85,6.062.379-2-4.763-3.844h3.745l1.9-.8.746-3.933-.288.219-.824-.069-5.84,3.012,3.518-3.206,2.321.194,1.2-.62.735-3.873,1.051.624,1.49-2.753L28.07,23.18l-5.669.712,2.919,2.532L21.66,24.2l-5.1,5.705,4.424,1.411-4.635-.714,1.015,6.176,2.467,3.49,3.681,1.1Zm8.527-7.156-.488-1.325L31.467,36ZM24.473,49.145,21.35,45.813l.149,4.433.837-.6-.142-2.336L23.11,49.3l0,0,1.167.222-.5.955L24.85,52.1l2.957-2.544-.793-2.339.793-4.429Zm5.9-20.511,2.191.406.227.3-1.321,1.982.984,2.67,1.522-3.106,2.441,3.186-.482,1.245L37.4,36l.089-.52,1.729,2.256.62-1.369,1.3-2.776-.363-3.11-.415-2.309L38.741,24.53l-4.406-1.146-4.174,1.333-.378.7,1.9,2.476Zm9.735,4.3L38.53,34.547l.579-3.228Zm-8.636-6.883L34.3,24.641l.032-.016.037.015,3.1,1.257.057.023.031.063,1.3,2.654-.457.21L37.27,26.184,34.334,24.81Zm13,16.33L42.04,38.469,40.1,39.544l.941,3.1ZM32.953,49.951,36.3,49.8v-2l1.98-1.624-1.98-1.5ZM36.5,38.1H32.57l-3.8,4.2.919.749,1.782-1.939,5.936,0,1.706,1.937.994-.771Zm2.716,7.148,1.146,2.743,1.879-.462-.266-.356Zm3.024,2.281L43,48.55,41.042,49.8l2.891,2.261L47.3,50.516l.274-4.866-1.467.931Zm5.016-23.573-6.322-.94,1.328,4.036,2.462-1.619.2,6.448h.932l4.154-1.388.165.662-4.319.726,5.6,4.9-6.49-3.7.107,3.41,4.4,1.358-.588,1.232-3.81-2.555v.031L42.9,35.629l2.3,4.7.038,1.205,3.942-1.259,2.285-3.382L52.7,30.216ZM29.029,36.365l-1.484-2.511.573,7.045,1.568-3.382Zm5.745,8.312h-2.2l-2.044,1.5,1.6,2.244ZM28.5,48.264l2.023-2.083-.769-.769Zm2.391,3.164L32.2,54.281l2.2.736L30.631,47.8Zm5.076,3.482,2.005-3.482-3.57.526Z" transform="translate(-16.347 -23.017)" fill="#c4dcf1"/>
</svg>
