<svg id="Component_64_1" data-name="Component 64 – 1" xmlns="http://www.w3.org/2000/svg" xmlns:xlink="http://www.w3.org/1999/xlink" width="24" height="24" viewBox="0 0 24 24">
  <defs>
    <clipPath id="clip-path">
      <path id="Path_494" data-name="Path 494" d="M0,0H24V24H0Z" transform="translate(18 87)" fill="#fff"/>
    </clipPath>
  </defs>
  <g id="Mask_Group_2" data-name="Mask Group 2" transform="translate(-18 -87)" clip-path="url(#clip-path)">
    <path id="hd_apg_icon_gateway" d="M91.105,6393c.216,3.178.2,6.438,11.925,6.438s11.785-3.26,12-6.438c-2.63,2.409-7.048,4.056-12,4.056S93.735,6395.411,91.105,6393Zm11.925,2.9c5.265,0,9.827-1.845,12-4.518,0-6.334-.046-6.334-8-7.009v-2.314a.6.6,0,1,0-1.2,0v2.234q-1.021-.054-2.2-.065v-2.169a.6.6,0,1,0-1.2,0v2.169q-1.178.01-2.2.065v-2.234a.6.6,0,1,0-1.2,0v2.314c-7.956.675-8,.675-8,7.008C93.2,6394.054,97.764,6395.9,103.03,6395.9Zm5.4-4.693a.6.6,0,1,1,1.2,0v1.262a.6.6,0,1,1-1.2,0Zm-2.216.716a.6.6,0,1,1,1.2,0v1.263a.6.6,0,1,1-1.2,0Zm-3.181-.883a1.564,1.564,0,1,1-1.929,1.521A1.762,1.762,0,0,1,103.03,6391.04Zm-4.465.883a.6.6,0,1,1,1.2,0v1.263a.6.6,0,1,1-1.2,0Zm-2.353-.716a.6.6,0,1,1,1.2,0v1.262a.6.6,0,1,1-1.2,0Z" transform="translate(-73.03 -6291.188)" fill="#fff"/>
  </g>
</svg>
