<svg xmlns="http://www.w3.org/2000/svg" xmlns:xlink="http://www.w3.org/1999/xlink" width="24" height="24" viewBox="0 0 24 24">
  <defs>
    <clipPath id="clip-path">
      <rect id="Rectangle_1556" data-name="Rectangle 1556" width="24" height="24" transform="translate(24 336)" fill="#fff"/>
    </clipPath>
  </defs>
  <g id="icon_on_model" transform="translate(-24 -336)" clip-path="url(#clip-path)">
    <g id="icon_model" transform="translate(18.331 330.331)">
      <path id="Path_3350" data-name="Path 3350" d="M8.834,21.821h.839a.221.221,0,0,0,.206-.147l1.634-4.7V21.6a.221.221,0,0,0,.221.221h.9a.221.221,0,0,0,.221-.221V14.5a.221.221,0,0,0-.221-.221H11.4a.206.206,0,0,0-.206.147S9.364,19.7,9.32,19.848L7.509,14.429a.221.221,0,0,0-.147-.147H5.89a.221.221,0,0,0-.221.221v7.1a.221.221,0,0,0,.221.221h.9a.221.221,0,0,0,.221-.221V16.9l1.634,4.756A.206.206,0,0,0,8.834,21.821Z" fill="#fff"/>
      <path id="Path_3351" data-name="Path 3351" d="M22.7,14.164H21.85a.221.221,0,0,0-.221.221V16.4l-.265-.206a1.973,1.973,0,0,0-.942-.221,2.4,2.4,0,0,0-1.266.368,2.238,2.238,0,0,0-.839,1.06,3.166,3.166,0,0,0-.162.53,2.385,2.385,0,0,0-.618-1.193,2.533,2.533,0,0,0-1.885-.766,2.577,2.577,0,0,0-1.767.633,2.842,2.842,0,0,0-.869,2.267,3.033,3.033,0,0,0,.721,2.15,2.577,2.577,0,0,0,1.914.766,2.68,2.68,0,0,0,1.34-.353,2.253,2.253,0,0,0,.957-.972,3.019,3.019,0,0,0,.221-.648,2.474,2.474,0,0,0,1.045,1.59,2.267,2.267,0,0,0,1.252.383,1.84,1.84,0,0,0,1.222-.412v.074a.221.221,0,0,0,.221.221h.8a.236.236,0,0,0,.236-.221V14.385a.236.236,0,0,0-.236-.221Zm-1,4.829a1.958,1.958,0,0,1-.353,1.281,1.016,1.016,0,0,1-1.6,0,1.958,1.958,0,0,1-.368-1.325,2.15,2.15,0,0,1,.339-1.355.986.986,0,0,1,.8-.4,1.016,1.016,0,0,1,.825.412A2.164,2.164,0,0,1,21.7,18.994Zm-6.052,1.62a1.163,1.163,0,0,1-.928-.412,2.017,2.017,0,0,1-.368-1.34,1.973,1.973,0,0,1,.368-1.325,1.163,1.163,0,0,1,.928-.412,1.134,1.134,0,0,1,.9.412,1.944,1.944,0,0,1,.383,1.3A2.076,2.076,0,0,1,16.55,20.2a1.1,1.1,0,0,1-.9.412Z" fill="#fff"/>
      <path id="Path_3352" data-name="Path 3352" d="M25.693,16a2.474,2.474,0,0,0-1.9.8,3.077,3.077,0,0,0-.721,2.15,2.945,2.945,0,0,0,.721,2.106,2.871,2.871,0,0,0,3.548.28A2.356,2.356,0,0,0,28.211,20a.221.221,0,0,0-.191-.28l-.928-.118a.236.236,0,0,0-.206.147,1.472,1.472,0,0,1-.456.707,1.252,1.252,0,0,1-1.59-.177,1.472,1.472,0,0,1-.4-.913h3.534c.118,0,.221-.177.221-.294v-.162a3.063,3.063,0,0,0-.721-2.135A2.429,2.429,0,0,0,25.693,16ZM26.856,18.2H24.486a1.266,1.266,0,0,1,.368-.692,1.1,1.1,0,0,1,.854-.339,1.075,1.075,0,0,1,.9.427,1.207,1.207,0,0,1,.25.6Z" fill="#fff"/>
      <rect id="Rectangle_1555" data-name="Rectangle 1555" width="1.31" height="7.524" rx="0.221" transform="translate(28.358 14.282)" fill="#fff"/>
      <path id="Path_3353" data-name="Path 3353" d="M23.558,12.987h.987a.221.221,0,0,0,.221-.221V8.245a.221.221,0,0,0-.221-.221H10.793a.221.221,0,0,0-.221.221v4.52a.221.221,0,0,0,.221.221h.987A.221.221,0,0,0,12,12.766V9.453H23.337v3.313a.221.221,0,0,0,.221.221Z" fill="#fff"/>
      <path id="Path_3354" data-name="Path 3354" d="M8.834,12.987h.987a.221.221,0,0,0,.221-.221V7.848a.751.751,0,0,1,.751-.751H24.545a.751.751,0,0,1,.751.751v4.918a.221.221,0,0,0,.221.221H26.5a.221.221,0,0,0,.221-.221V7.848a2.194,2.194,0,0,0-2.179-2.179H10.793A2.194,2.194,0,0,0,8.613,7.848v4.918a.221.221,0,0,0,.221.221Z" fill="#fff"/>
      <path id="Path_3355" data-name="Path 3355" d="M11.779,22.351h-.987a.221.221,0,0,0-.221.221v4.52a.221.221,0,0,0,.221.221H24.545a.221.221,0,0,0,.221-.221v-4.52a.221.221,0,0,0-.221-.221h-.987a.221.221,0,0,0-.221.221v3.313H12V22.572A.221.221,0,0,0,11.779,22.351Z" fill="#fff"/>
      <path id="Path_3356" data-name="Path 3356" d="M26.5,22.351h-.987a.221.221,0,0,0-.221.221V27.49a.751.751,0,0,1-.751.751H10.793a.751.751,0,0,1-.751-.751V22.572a.221.221,0,0,0-.221-.221H8.834a.221.221,0,0,0-.221.221V27.49a2.194,2.194,0,0,0,2.179,2.179H24.545a2.194,2.194,0,0,0,2.179-2.179V22.572A.221.221,0,0,0,26.5,22.351Z" fill="#fff"/>
    </g>
  </g>
</svg>
