<svg xmlns="http://www.w3.org/2000/svg" xmlns:xlink="http://www.w3.org/1999/xlink" width="24" height="24" viewBox="0 0 24 24">
  <defs>
    <clipPath id="clip-path">
      <rect id="Rectangle_1197" data-name="Rectangle 1197" width="24" height="24" transform="translate(-4230 -1032)" fill="#707070"/>
    </clipPath>
  </defs>
  <g id="icon_position" transform="translate(4230 1032)" clip-path="url(#clip-path)">
    <g id="icon_position-2" data-name="icon_position" transform="translate(-4230 -1032)">
      <path id="Path_1643" data-name="Path 1643" d="M12,9a3,3,0,1,0,3,3A3,3,0,0,0,12,9Z" fill="#c4dcf1"/>
      <path id="Path_1644" data-name="Path 1644" d="M22.23,10.86a10.33,10.33,0,0,0-9.09-9.09V0H10.86V1.77a10.33,10.33,0,0,0-9.09,9.09H0v2.28H1.77a10.33,10.33,0,0,0,9.09,9.09V24h2.28V22.23a10.33,10.33,0,0,0,9.09-9.09H24V10.86ZM12,20.5A8.5,8.5,0,1,1,20.5,12,8.5,8.5,0,0,1,12,20.5Z" fill="#c4dcf1"/>
      <path id="Path_1645" data-name="Path 1645" d="M12,5.25A6.75,6.75,0,1,0,18.75,12,6.75,6.75,0,0,0,12,5.25Zm0,12A5.25,5.25,0,1,1,17.25,12,5.25,5.25,0,0,1,12,17.25Z" fill="#c4dcf1"/>
    </g>
  </g>
</svg>
