<svg xmlns="http://www.w3.org/2000/svg" xmlns:xlink="http://www.w3.org/1999/xlink" width="24" height="24" viewBox="0 0 24 24">
  <defs>
    <clipPath id="clip-path">
      <rect id="Rectangle_1562" data-name="Rectangle 1562" width="24" height="24" transform="translate(24 384)" fill="#fff"/>
    </clipPath>
  </defs>
  <g id="icon_on_project" transform="translate(-24 -384)" clip-path="url(#clip-path)">
    <g id="icon_project" transform="translate(20.45 380.562)">
      <rect id="Rectangle_1561" data-name="Rectangle 1561" width="14" height="2" rx="0.2" transform="translate(8.55 13.439)" fill="#fff"/>
      <path id="Path_3359" data-name="Path 3359" d="M24.341,8.083H16.359a.753.753,0,0,1-.5-.213L13.59,5.6a3.138,3.138,0,0,0-2.3-.937H6.759A3.209,3.209,0,0,0,3.55,7.87V23.008a3.209,3.209,0,0,0,3.209,3.209H24.341a3.209,3.209,0,0,0,3.209-3.209V11.292A3.209,3.209,0,0,0,24.341,8.083ZM6.078,7.87a.682.682,0,0,1,.682-.7h4.53a.724.724,0,0,1,.5.213L14.13,9.659A3.2,3.2,0,0,0,16.4,10.6h7.981a.682.682,0,0,1,.682.7V23.008a.682.682,0,0,1-.682.7H6.759a.682.682,0,0,1-.682-.7Z" transform="translate(0)" fill="#fff"/>
    </g>
  </g>
</svg>
