<svg id="Component_80_1" data-name="Component 80 – 1" xmlns="http://www.w3.org/2000/svg" xmlns:xlink="http://www.w3.org/1999/xlink" width="24" height="24" viewBox="0 0 24 24">
  <defs>
    <clipPath id="clip-path">
      <rect id="Rectangle_388" data-name="Rectangle 388" width="24" height="24" transform="translate(99 467)" fill="#fff"/>
    </clipPath>
  </defs>
  <g id="Mask_Group_15" data-name="Mask Group 15" transform="translate(-99 -467)" clip-path="url(#clip-path)">
    <g id="Group_400" data-name="Group 400" transform="translate(32 -13.5)">
      <path id="Path_509" data-name="Path 509" d="M14.629,196.255a4.259,4.259,0,0,0-4.14-3.72H9.763a4.259,4.259,0,0,0-4.14,3.72c-.169,1.137-.352,2.363-.477,3.2a1.865,1.865,0,0,0,.392,1.449,1.681,1.681,0,0,0,1.3.629h6.571a1.681,1.681,0,0,0,1.3-.629,1.864,1.864,0,0,0,.392-1.448Z" transform="translate(65.874 297.464)" fill="#c4dcf1" fill-rule="evenodd"/>
      <path id="Subtraction_10" data-name="Subtraction 10" d="M22,18H2a2,2,0,0,1-2-2V3A2,2,0,0,1,2,1H4V3H3A1,1,0,0,0,2,4V15a1,1,0,0,0,1,1H21a1,1,0,0,0,1-1V4a1,1,0,0,0-1-1H15V1h7a2,2,0,0,1,2,2V16A2,2,0,0,1,22,18Z" transform="translate(67 485)" fill="#c4dcf1"/>
      <rect id="Rectangle_392" data-name="Rectangle 392" width="4" height="2" rx="1" transform="translate(83 490)" fill="#c4dcf1"/>
      <rect id="Rectangle_393" data-name="Rectangle 393" width="4" height="2" rx="1" transform="translate(83 493.5)" fill="#c4dcf1"/>
      <rect id="Rectangle_394" data-name="Rectangle 394" width="4" height="2" rx="1" transform="translate(83 497)" fill="#c4dcf1"/>
      <circle id="Ellipse_41" data-name="Ellipse 41" cx="3.5" cy="3.5" r="3.5" transform="translate(72.5 482)" fill="#c4dcf1"/>
    </g>
  </g>
</svg>
