<svg id="Component_79_1" data-name="Component 79 – 1" xmlns="http://www.w3.org/2000/svg" xmlns:xlink="http://www.w3.org/1999/xlink" width="24" height="24" viewBox="0 0 24 24">
  <defs>
    <clipPath id="clip-path">
      <rect id="Rectangle_401" data-name="Rectangle 401" width="24" height="24" transform="translate(99 467)" fill="#fff"/>
    </clipPath>
  </defs>
  <g id="Mask_Group_16" data-name="Mask Group 16" transform="translate(-99 -467)" clip-path="url(#clip-path)">
    <g id="Group_401" data-name="Group 401" transform="translate(32 -13.5)">
      <path id="Path_510" data-name="Path 510" d="M14.629,196.255a4.259,4.259,0,0,0-4.14-3.72H9.763a4.259,4.259,0,0,0-4.14,3.72c-.169,1.137-.352,2.363-.477,3.2a1.865,1.865,0,0,0,.392,1.449,1.681,1.681,0,0,0,1.3.629h6.571a1.681,1.681,0,0,0,1.3-.629,1.864,1.864,0,0,0,.392-1.448Z" transform="translate(65.874 297.464)" fill="#fff" fill-rule="evenodd"/>
      <path id="Subtraction_12" data-name="Subtraction 12" d="M22,18H2a2,2,0,0,1-2-2V3A2,2,0,0,1,2,1H4V3H3A1,1,0,0,0,2,4V15a1,1,0,0,0,1,1H21a1,1,0,0,0,1-1V4a1,1,0,0,0-1-1H15V1h7a2,2,0,0,1,2,2V16A2,2,0,0,1,22,18Z" transform="translate(67 485)" fill="#fff"/>
      <rect id="Rectangle_398" data-name="Rectangle 398" width="4" height="2" rx="1" transform="translate(83 490)" fill="#fff"/>
      <rect id="Rectangle_399" data-name="Rectangle 399" width="4" height="2" rx="1" transform="translate(83 493.5)" fill="#fff"/>
      <rect id="Rectangle_400" data-name="Rectangle 400" width="4" height="2" rx="1" transform="translate(83 497)" fill="#fff"/>
      <circle id="Ellipse_42" data-name="Ellipse 42" cx="3.5" cy="3.5" r="3.5" transform="translate(72.5 482)" fill="#fff"/>
    </g>
  </g>
</svg>
