<svg id="Layer_2" data-name="Layer 2" xmlns="http://www.w3.org/2000/svg" width="24" height="24" viewBox="0 0 24 24">
  <g id="options-2">
    <rect id="Rectangle_373" data-name="Rectangle 373" width="24" height="24" transform="translate(24) rotate(90)" fill="#c4dcf1" opacity="0"/>
    <path id="Path_506" data-name="Path 506" d="M19,9a3,3,0,0,0-2.82,2H3a1,1,0,0,0,0,2H16.18A3,3,0,1,0,19,9ZM3,7H4.18A3,3,0,0,0,9.82,7H21a1,1,0,0,0,0-2H9.82A3,3,0,0,0,4.18,5H3A1,1,0,0,0,3,7ZM21,17H13.82a3,3,0,0,0-5.64,0H3a1,1,0,0,0,0,2H8.18a3,3,0,0,0,5.64,0H21a1,1,0,0,0,0-2Z" fill="#c4dcf1"/>
  </g>
</svg>
