<svg id="icon_smartwatch_off" xmlns="http://www.w3.org/2000/svg" xmlns:xlink="http://www.w3.org/1999/xlink" width="24" height="24" viewBox="0 0 24 24">
  <defs>
    <clipPath id="clip-path">
      <rect id="Rectangle_564" data-name="Rectangle 564" width="24" height="24" transform="translate(921 253)" fill="#3398d7" stroke="#707070" stroke-width="1"/>
    </clipPath>
  </defs>
  <g id="Mask_Group_25" data-name="Mask Group 25" transform="translate(-921 -253)" clip-path="url(#clip-path)">
    <g id="Component_57_4" data-name="Component 57 – 4" transform="translate(925 253)">
      <g id="Group_380" data-name="Group 380" transform="translate(-22 -298)">
        <path id="Path_191" data-name="Path 191" d="M96.582,6170.657h12.895a.862.862,0,0,1,.86.86v12.934a.863.863,0,0,1-.86.86H96.582a.863.863,0,0,1-.86-.86v-12.934a.862.862,0,0,1,.86-.86Zm.39,1.25v12.154h12.115v-12.154Z" transform="translate(-73.14 -5867.984)" fill="#3398d7" fill-rule="evenodd"/>
        <rect id="Rectangle_109" data-name="Rectangle 109" width="0.674" height="2.505" transform="translate(37.105 308.747)" fill="#3398d7"/>
        <rect id="Rectangle_110" data-name="Rectangle 110" width="0.848" height="2.505" transform="translate(22 308.747)" fill="#3398d7"/>
        <path id="Path_192" data-name="Path 192" d="M108.354,6170.157c-1-1.288.178-4.31-2.857-4.168h-4.934c-3.036-.142-1.852,2.88-2.858,4.168Z" transform="translate(-73.14 -5867.984)" fill="#3398d7" fill-rule="evenodd"/>
        <path id="Path_193" data-name="Path 193" d="M108.354,6185.811c-1,1.288.178,4.309-2.857,4.168h-4.934c-3.036.141-1.852-2.88-2.858-4.168Z" transform="translate(-73.14 -5867.984)" fill="#3398d7" fill-rule="evenodd"/>
        <path id="Path_194" data-name="Path 194" d="M103.03,6180.982a1.221,1.221,0,1,1-1.222,1.221A1.221,1.221,0,0,1,103.03,6180.982Z" transform="translate(-73.14 -5867.984)" fill="#3398d7" fill-rule="evenodd"/>
        <path id="Path_195" data-name="Path 195" d="M107.742,6175.263a1.222,1.222,0,1,1-1.669-.447A1.222,1.222,0,0,1,107.742,6175.263Z" transform="translate(-73.14 -5867.984)" fill="#3398d7" fill-rule="evenodd"/>
        <path id="Path_196" data-name="Path 196" d="M100.433,6179.483a1.221,1.221,0,1,1-1.668-.447A1.219,1.219,0,0,1,100.433,6179.483Z" transform="translate(-73.14 -5867.984)" fill="#3398d7" fill-rule="evenodd"/>
        <path id="Path_197" data-name="Path 197" d="M107.742,6180.7a1.222,1.222,0,1,1-.447-1.668A1.222,1.222,0,0,1,107.742,6180.7Z" transform="translate(-73.14 -5867.984)" fill="#3398d7" fill-rule="evenodd"/>
        <path id="Path_198" data-name="Path 198" d="M100.433,6176.485a1.221,1.221,0,1,1-.447-1.669A1.221,1.221,0,0,1,100.433,6176.485Z" transform="translate(-73.14 -5867.984)" fill="#3398d7" fill-rule="evenodd"/>
        <path id="Path_199" data-name="Path 199" d="M103.03,6176.577a1.406,1.406,0,1,1-1.407,1.407A1.406,1.406,0,0,1,103.03,6176.577Z" transform="translate(-73.14 -5867.984)" fill="#3398d7" fill-rule="evenodd"/>
        <path id="Path_200" data-name="Path 200" d="M103.03,6172.543a1.221,1.221,0,1,1-1.222,1.221A1.221,1.221,0,0,1,103.03,6172.543Z" transform="translate(-73.14 -5867.984)" fill="#3398d7" fill-rule="evenodd"/>
      </g>
    </g>
  </g>
</svg>
