<svg id="Component_71_1" data-name="Component 71 – 1" xmlns="http://www.w3.org/2000/svg" xmlns:xlink="http://www.w3.org/1999/xlink" width="24" height="24" viewBox="0 0 24 24">
  <defs>
    <clipPath id="clip-path">
      <rect id="Rectangle_369" data-name="Rectangle 369" width="24" height="24" transform="translate(18 936)" fill="#fff"/>
    </clipPath>
  </defs>
  <g id="Mask_Group_13" data-name="Mask Group 13" transform="translate(-18 -936)" clip-path="url(#clip-path)">
    <g id="Group_399" data-name="Group 399" transform="translate(0 -15)">
      <path id="Subtraction_7" data-name="Subtraction 7" d="M8.025,13.478h0c-3.435-.078-5.658-.589-6.795-1.561A4,4,0,0,1,.066,8.8L.057,8.659a13.139,13.139,0,0,0,8.293,3.029,8.492,8.492,0,0,0-.324,1.788Zm.629-2.648h0C4.951,10.753,1.635,9.456,0,7.443,0,5.152,0,3.891.762,3.226S3.01,2.442,5.99,2.189H6V.452a.45.45,0,1,1,.9,0V2.128c.516-.027,1.071-.043,1.649-.049V.452a.45.45,0,1,1,.9,0V2.079c.593.005,1.148.022,1.649.049V.452a.45.45,0,1,1,.9,0V2.188h.01c2.6.221,4.032.342,4.871.792.868.465,1.052,1.29,1.1,2.745A8.577,8.577,0,0,0,16.5,5.6,8.435,8.435,0,0,0,10.43,8.151,1.378,1.378,0,0,0,9,7.188,1.323,1.323,0,0,0,7.553,8.33,1.323,1.323,0,0,0,9,9.47a1.814,1.814,0,0,0,.4-.045,8.5,8.5,0,0,0-.747,1.4ZM6.1,7.4a.452.452,0,0,0-.45.454V8.8a.45.45,0,1,0,.9,0V7.851A.452.452,0,0,0,6.1,7.4ZM4.336,6.861a.451.451,0,0,0-.45.452v.946a.45.45,0,1,0,.9,0V7.313A.451.451,0,0,0,4.336,6.861Z" transform="translate(18 952)" fill="#fff"/>
      <g id="Group_397" data-name="Group 397" transform="translate(26.002 957.549)">
        <path id="Path_507" data-name="Path 507" d="M9,2a7,7,0,1,0,7,7A7,7,0,0,0,9,2ZM9,14.6A5.6,5.6,0,1,1,14.6,9,5.6,5.6,0,0,1,9,14.6Z" fill="#fff"/>
        <path id="Path_508" data-name="Path 508" d="M12.4,9.913V6.7a.7.7,0,1,0-1.4,0v3.5a.7.7,0,0,0,.2.5L14,13.5A.7.7,0,1,0,15,12.5Z" transform="translate(-2.7 -1.2)" fill="#fff"/>
      </g>
    </g>
  </g>
</svg>
